<?xml version="1.0" encoding="UTF-8" standalone="no"?>
<!-- Created with Inkscape (http://www.inkscape.org/) -->

<svg
   xmlns:dc="http://purl.org/dc/elements/1.1/"
   xmlns:cc="http://creativecommons.org/ns#"
   xmlns:rdf="http://www.w3.org/1999/02/22-rdf-syntax-ns#"
   xmlns:svg="http://www.w3.org/2000/svg"
   xmlns="http://www.w3.org/2000/svg"
   xmlns:sodipodi="http://sodipodi.sourceforge.net/DTD/sodipodi-0.dtd"
   xmlns:inkscape="http://www.inkscape.org/namespaces/inkscape"
   width="300"
   height="50"
   viewBox="0 0 300 50"
   id="svg2"
   version="1.1"
   inkscape:version="0.91 r13725"
   sodipodi:docname="aviso.svg">
  <defs
     id="defs4" />
  <sodipodi:namedview
     id="base"
     pagecolor="#ffffff"
     bordercolor="#666666"
     borderopacity="1.0"
     inkscape:pageopacity="0.0"
     inkscape:pageshadow="2"
     inkscape:zoom="1.979899"
     inkscape:cx="128.52502"
     inkscape:cy="101.64105"
     inkscape:document-units="px"
     inkscape:current-layer="layer1"
     showgrid="false"
     units="px"
     inkscape:window-width="1366"
     inkscape:window-height="719"
     inkscape:window-x="0"
     inkscape:window-y="25"
     inkscape:window-maximized="1"
     showguides="true"
     inkscape:guide-bbox="true">
    <sodipodi:guide
       position="150.00765,78.286822"
       orientation="1,0"
       id="guide4147" />
    <sodipodi:guide
       position="180.31223,25.253813"
       orientation="0,1"
       id="guide4149" />
  </sodipodi:namedview>
  <metadata
     id="metadata7">
    <rdf:RDF>
      <cc:Work
         rdf:about="">
        <dc:format>image/svg+xml</dc:format>
        <dc:type
           rdf:resource="http://purl.org/dc/dcmitype/StillImage" />
        <dc:title />
      </cc:Work>
    </rdf:RDF>
  </metadata>
  <g
     inkscape:label="Camada 1"
     inkscape:groupmode="layer"
     id="layer1"
     transform="translate(0,-1002.3622)">
    <rect
       style="opacity:1;fill:#ffb800;fill-opacity:0.59411765;fill-rule:evenodd;stroke:#000000;stroke-width:0.19712859;stroke-linecap:round;stroke-linejoin:round;stroke-miterlimit:4;stroke-dasharray:none;stroke-opacity:1"
       id="rect4194"
       width="299.51309"
       height="51.520615"
       x="0.50364065"
       y="1002.3582" />
    <g
       transform="matrix(0.96064138,0,0,1.0409712,4.0203052,-2.5253814)"
       style="font-style:normal;font-weight:normal;font-size:31.42083359px;line-height:125%;font-family:sans-serif;letter-spacing:0px;word-spacing:0px;fill:#000000;fill-opacity:1;stroke:none;stroke-width:1px;stroke-linecap:butt;stroke-linejoin:miter;stroke-opacity:1"
       id="text4196">
      <path
         d="m 47.408887,998.2229 q -1.759566,0 -2.513666,-0.69126 -0.7541,-0.69126 -0.7541,-1.97951 0,-0.62842 0.09426,-2.13662 0.09426,-1.53962 0.251367,-3.48771 0.157104,-1.94809 0.314208,-4.11613 0.157104,-2.16804 0.314208,-4.08471 0.157105,-1.91667 0.251367,-3.36203 0.09426,-1.44535 0.09426,-1.97951 0,-0.47131 0.502733,-0.47131 l 11.060133,0 q 0.188525,0 0.34563,0.0943 0.157104,0.0943 0.157104,0.34563 l -0.125684,1.85383 q -0.06284,0.94262 -0.534154,1.53962 -0.439891,0.56558 -1.853829,0.56558 l -4.336075,0 -0.314208,4.43033 4.461758,0 q 0.188525,0 0.345629,0.0943 0.157104,0.0943 0.157104,0.34562 l -0.125683,1.85383 q -0.06284,0.94263 -0.534154,1.53962 -0.439892,0.56558 -1.853829,0.56558 l -2.733613,0 -0.345629,4.6817 6.912583,0 q 0.188525,0 0.34563,0.12569 0.157104,0.0943 0.157104,0.31421 l -0.125684,1.85382 q -0.06284,0.94263 -0.534154,1.53963 -0.439891,0.56557 -1.853829,0.56557 l -7.226792,0 z"
         style="font-style:normal;font-variant:normal;font-weight:normal;font-stretch:normal;font-family:'Poetsen One';-inkscape-font-specification:'Poetsen One'"
         id="path4201"
         inkscape:connector-curvature="0" />
      <path
         d="m 65.034502,992.56715 q -0.09426,1.44536 -0.219946,2.76503 -0.125683,1.28826 -0.188525,2.2623 -0.03142,0.37705 -0.157104,0.50274 -0.125683,0.12568 -0.534154,0.12568 l -1.13115,0 q -0.974046,0 -1.602462,-0.18852 -0.596996,-0.21995 -0.974046,-0.597 -0.345629,-0.37705 -0.502734,-0.9112 -0.125683,-0.56558 -0.125683,-1.28826 0,-0.47131 0.03142,-1.31967 0.06284,-0.87979 0.188525,-2.38799 0.125683,-1.53962 0.282787,-3.86476 0.188525,-2.35656 0.439892,-5.81285 0.03142,-0.69126 0.157104,-0.81695 0.09426,-0.0943 0.502734,-0.0943 l 1.225412,0 q 0.942625,0 1.539621,0.21995 0.596996,0.21994 0.974046,0.56557 0.37705,0.34563 0.534154,0.81694 0.157104,0.47132 0.188525,0.97405 0.911204,-1.69672 2.073775,-2.29372 1.162571,-0.597 2.733612,-0.597 0.848363,0 1.633884,0.15711 0.785521,0.1571 1.413937,0.53415 0.628417,0.37705 1.068309,1.00547 0.439891,0.59699 0.628416,1.53962 0.974046,-1.82241 2.136617,-2.51367 1.162571,-0.72268 2.922138,-0.72268 0.974045,0 1.853829,0.21995 0.911204,0.18852 1.571041,0.69126 0.659838,0.50273 1.036888,1.38251 0.408471,0.84837 0.408471,2.13662 0,0.97405 -0.09426,2.38798 -0.09426,1.41394 -0.219946,3.07925 -0.125683,1.63388 -0.282787,3.39345 -0.157104,1.72814 -0.251367,3.3306 -0.03142,0.34563 -0.06284,0.53416 -0.03142,0.18852 -0.125684,0.28279 -0.06284,0.0943 -0.219946,0.12568 -0.157104,0.0314 -0.439891,0.0314 l -1.005467,0 q -1.005467,0 -1.633883,-0.18852 -0.628417,-0.18853 -0.974046,-0.53416 -0.345629,-0.34563 -0.502733,-0.84836 -0.125684,-0.53416 -0.125684,-1.19399 0,-0.40847 0.03142,-1.16257 0.06284,-0.7541 0.125683,-1.63389 0.09426,-0.87978 0.157105,-1.82241 0.09426,-0.94262 0.157104,-1.72814 0.09426,-0.81694 0.125683,-1.41394 0.06284,-0.59699 0.06284,-0.78552 0,-0.81694 -0.345629,-1.44536 -0.314209,-0.62841 -1.256834,-0.62841 -0.816941,0 -1.413937,0.53415 -0.596996,0.53415 -1.005467,1.47678 -0.408471,0.94262 -0.659837,2.23088 -0.251367,1.28825 -0.34563,2.79645 -0.06284,0.97405 -0.157104,2.23088 -0.09426,1.25683 -0.219946,3.14208 -0.03142,0.34563 -0.06284,0.53416 -0.03142,0.18852 -0.125684,0.28279 -0.06284,0.0943 -0.219945,0.12568 -0.157105,0.0314 -0.439892,0.0314 l -1.005467,0 q -1.005467,0 -1.633883,-0.18852 -0.628417,-0.18853 -0.974046,-0.53416 -0.345629,-0.34563 -0.502733,-0.84836 -0.125684,-0.53416 -0.125684,-1.19399 0,-0.62842 0.09426,-1.82241 0.125683,-1.22541 0.219946,-2.51367 0.125683,-1.31967 0.219945,-2.48224 0.125684,-1.194 0.125684,-1.72815 0,-0.81694 -0.345629,-1.44536 -0.314209,-0.62841 -1.256834,-0.62841 -0.848362,0 -1.445358,0.62841 -0.596996,0.62842 -1.005467,1.69673 -0.37705,1.03688 -0.628416,2.45082 -0.219946,1.41394 -0.314209,2.95356 z"
         style="font-style:normal;font-variant:normal;font-weight:normal;font-stretch:normal;font-family:'Poetsen One';-inkscape-font-specification:'Poetsen One'"
         id="path4203"
         inkscape:connector-curvature="0" />
      <path
         d="m 102.61971,994.35814 q 0.9112,0 1.57104,-0.25137 0.69126,-0.25137 1.19399,-0.56557 0.50274,-0.31421 0.84837,-0.56558 0.34563,-0.25137 0.62841,-0.25137 0.72268,0 0.72268,0.94263 0,0.21995 -0.0943,0.62842 -0.0943,0.37705 -0.25137,0.81694 -0.1571,0.40847 -0.34563,0.78552 -0.1571,0.37705 -0.3142,0.56557 -0.15711,0.15711 -0.56558,0.50274 -0.37705,0.34563 -1.03689,0.69126 -0.65983,0.34562 -1.53962,0.59699 -0.87978,0.28279 -1.94809,0.28279 -1.19399,0 -2.482245,-0.34563 -1.256834,-0.37705 -2.293721,-1.25683 -1.036888,-0.91121 -1.728146,-2.41941 -0.659837,-1.53962 -0.659837,-3.83334 0,-0.81694 0.09426,-1.85383 0.125683,-1.06831 0.471313,-2.16804 0.345629,-1.13115 0.911204,-2.19945 0.596996,-1.09973 1.571041,-1.9481 0.974046,-0.84836 2.325142,-1.35109 1.382519,-0.53416 3.267769,-0.53416 1.53962,0 2.63935,0.37705 1.13115,0.34563 1.85383,0.97405 0.72268,0.597 1.06831,1.41394 0.37705,0.81694 0.37705,1.75956 0,1.69673 -1.06831,2.51367 -1.06831,0.78552 -3.0164,0.78552 -0.47131,0 -0.65984,-0.0628 -0.1571,-0.0943 -0.1571,-0.37705 0,-0.7541 -0.0314,-1.3511 -0.0314,-0.59699 -0.18853,-1.00546 -0.12568,-0.40847 -0.40847,-0.62842 -0.28279,-0.21995 -0.81694,-0.21995 -0.97405,0 -1.57104,0.62842 -0.56558,0.62842 -0.87979,1.53962 -0.282786,0.87979 -0.377048,1.82241 -0.06284,0.94263 -0.06284,1.57104 0,2.23088 0.691258,3.11066 0.72268,0.87979 2.2623,0.87979 z"
         style="font-style:normal;font-variant:normal;font-weight:normal;font-stretch:normal;font-family:'Poetsen One';-inkscape-font-specification:'Poetsen One'"
         id="path4205"
         inkscape:connector-curvature="0" />
      <path
         d="m 117.69582,998.53711 q -2.16804,0 -3.61339,-0.597 -1.41394,-0.62841 -2.2623,-1.69672 -0.84837,-1.06831 -1.194,-2.48225 -0.34562,-1.44536 -0.34562,-3.07924 0,-1.88525 0.43989,-3.67624 0.47131,-1.82241 1.57104,-3.23634 1.09973,-1.41394 2.89072,-2.2623 1.8224,-0.87979 4.5246,-0.87979 3.95902,0 5.65575,1.9481 1.72814,1.91667 1.72814,5.40438 0,0.97404 -0.1571,2.16804 -0.12569,1.16257 -0.53416,2.32514 -0.37705,1.16257 -1.06831,2.2623 -0.65983,1.09973 -1.69672,1.94809 -1.03689,0.84836 -2.51367,1.3511 -1.44536,0.50273 -3.42487,0.50273 z m 1.47678,-13.73091 q -1.19399,0 -1.91667,0.62842 -0.69126,0.597 -1.06831,1.47678 -0.34563,0.84836 -0.47131,1.82241 -0.0943,0.94262 -0.0943,1.60246 0,2.07378 0.65983,3.04782 0.65984,0.97405 1.88525,0.97405 1.09973,0 1.79099,-0.69126 0.72268,-0.69126 1.09973,-1.6653 0.40847,-0.97405 0.53416,-2.04236 0.1571,-1.06831 0.1571,-1.79099 0,-1.57104 -0.597,-2.45082 -0.56557,-0.91121 -1.97951,-0.91121 z"
         style="font-style:normal;font-variant:normal;font-weight:normal;font-stretch:normal;font-family:'Poetsen One';-inkscape-font-specification:'Poetsen One'"
         id="path4207"
         inkscape:connector-curvature="0" />
      <path
         d="m 140.15091,995.45787 q 0,-0.69126 0.0943,-1.79099 0.12568,-1.13115 0.21994,-2.35656 0.12569,-1.25684 0.21995,-2.41941 0.12568,-1.16257 0.12568,-1.94809 0,-0.81694 -0.40847,-1.44536 -0.37705,-0.65983 -1.5082,-0.65983 -1.09973,0 -1.82241,0.53415 -0.72268,0.53415 -1.22541,1.94809 -0.47131,1.41394 -0.78552,3.89618 -0.31421,2.48225 -0.597,6.37843 -0.0314,0.37705 -0.1571,0.50274 -0.12568,0.12568 -0.53416,0.12568 l -1.13115,0 q -0.97404,0 -1.60246,-0.18852 -0.59699,-0.21995 -0.97404,-0.597 -0.34563,-0.37705 -0.50274,-0.9112 -0.12568,-0.56558 -0.12568,-1.28826 0,-0.47131 0.0314,-1.31967 0.0628,-0.87979 0.18853,-2.38799 0.12568,-1.53962 0.28278,-3.86476 0.18853,-2.35656 0.43989,-5.81285 0.0314,-0.69126 0.15711,-0.81695 0.0943,-0.0943 0.50273,-0.0943 l 1.22541,0 q 0.94263,0 1.53963,0.21995 0.62841,0.21994 1.00546,0.59699 0.37705,0.34563 0.53416,0.84837 0.1571,0.47131 0.18852,0.97404 0.97405,-1.6653 2.23088,-2.29372 1.25683,-0.65984 3.14208,-0.65984 1.31968,0 2.29372,0.28279 0.97405,0.28279 1.60247,0.97405 0.65983,0.65983 0.97404,1.75956 0.31421,1.06831 0.31421,2.67077 0,0.50274 -0.0628,1.44536 -0.0628,0.94263 -0.1571,2.07378 -0.0943,1.09973 -0.21995,2.32514 -0.0943,1.19399 -0.18853,2.23088 -0.0943,1.03689 -0.1571,1.82241 -0.0628,0.78552 -0.0628,1.03688 0,0.69126 -0.15711,0.84837 -0.1571,0.12568 -0.69125,0.12568 l -1.00547,0 q -1.00547,0 -1.63388,-0.18852 -0.62842,-0.18853 -0.97405,-0.53416 -0.34563,-0.34563 -0.50273,-0.84836 -0.12569,-0.53416 -0.12569,-1.19399 z"
         style="font-style:normal;font-variant:normal;font-weight:normal;font-stretch:normal;font-family:'Poetsen One';-inkscape-font-specification:'Poetsen One'"
         id="path4209"
         inkscape:connector-curvature="0" />
      <path
         d="m 156.21138,980.62723 q 2.67077,0 3.92761,1.06831 1.25683,1.03689 1.25683,2.67077 0,1.38252 -0.87978,2.1052 -0.84837,0.72268 -2.48225,0.72268 -0.43989,0 -0.597,-0.0943 -0.1571,-0.0943 -0.1571,-0.34563 0,-0.28279 -0.0628,-0.62842 -0.0314,-0.37705 -0.21995,-0.69126 -0.1571,-0.34563 -0.53415,-0.56557 -0.34563,-0.21995 -1.00547,-0.21995 -0.87978,0 -1.41394,0.43989 -0.53415,0.40847 -0.53415,1.03689 0,0.65984 0.53415,1.06831 0.56558,0.37705 1.38252,0.72268 0.84836,0.34563 1.82241,0.72268 0.97405,0.34563 1.79099,0.94262 0.84836,0.597 1.38251,1.5082 0.56558,0.87978 0.56558,2.29372 0,2.2623 -1.60246,3.70766 -1.60247,1.44536 -4.80739,1.44536 -0.87978,0 -2.04236,-0.15711 -1.13115,-0.12568 -2.16803,-0.40847 -1.03689,-0.3142 -1.75957,-0.81694 -0.69126,-0.50273 -0.69126,-1.25683 0,-0.28279 0.0943,-0.69126 0.12569,-0.40847 0.34563,-0.78552 0.25137,-0.37705 0.56558,-0.62842 0.34563,-0.28278 0.81694,-0.28278 0.37705,0 0.69126,0.18852 0.31421,0.18853 0.72268,0.40847 0.43989,0.18853 1.06831,0.37705 0.62841,0.18853 1.6653,0.18853 0.78552,0 1.38252,-0.18853 0.62841,-0.18852 0.62841,-0.84836 0,-0.597 -0.50273,-0.94263 -0.50273,-0.37705 -1.28825,-0.69125 -0.7541,-0.31421 -1.66531,-0.65984 -0.87978,-0.37705 -1.6653,-0.97405 -0.7541,-0.59699 -1.25684,-1.5082 -0.50273,-0.94262 -0.50273,-2.4194 0,-1.60246 0.62842,-2.70219 0.65984,-1.13115 1.6653,-1.82241 1.03689,-0.69126 2.32514,-0.97405 1.28826,-0.31421 2.57651,-0.31421 z"
         style="font-style:normal;font-variant:normal;font-weight:normal;font-stretch:normal;font-family:'Poetsen One';-inkscape-font-specification:'Poetsen One'"
         id="path4211"
         inkscape:connector-curvature="0" />
      <path
         d="m 170.43569,985.18325 q -0.0943,1.194 -0.21995,2.35657 -0.0943,1.16257 -0.18852,2.19946 -0.0943,1.03688 -0.15711,1.85382 -0.0314,0.81695 -0.0314,1.25684 0,0.81694 0.18853,1.09973 0.18852,0.25136 0.62841,0.25136 0.34563,0 0.597,-0.12568 0.25136,-0.12568 0.47131,-0.28279 0.21995,-0.1571 0.37705,-0.28278 0.18853,-0.12569 0.40847,-0.12569 0.21995,0 0.40847,0.25137 0.18853,0.25137 0.18853,1.16257 0,1.72815 -0.94263,2.73361 -0.94262,1.00547 -3.23634,1.00547 -2.2623,0 -3.36203,-1.03689 -1.06831,-1.06831 -1.06831,-3.23634 0,-0.47132 0.0314,-1.09973 0.0628,-0.65984 0.1571,-1.69673 0.0943,-1.03689 0.21995,-2.54509 0.1571,-1.5082 0.31421,-3.73908 l -1.66531,0 q -0.25136,0 -0.3142,-0.0943 -0.0314,-0.12568 -0.0314,-0.34563 l 0.0943,-1.60246 q 0.0314,-0.40847 0.0943,-0.78552 0.0943,-0.40847 0.31421,-0.72268 0.25136,-0.31421 0.69126,-0.50273 0.43989,-0.18853 1.16257,-0.18853 0.21994,-0.56557 0.50273,-1.35109 0.28279,-0.78552 0.56558,-1.5082 0.28278,-0.7541 0.53415,-1.25684 0.28279,-0.50273 0.50273,-0.50273 l 0.91121,0 q 1.31967,0 1.82241,0.81694 0.50273,0.81694 0.50273,1.94809 0,0.62842 -0.0943,1.85383 l 3.29918,0 q 0.50274,0 0.50274,0.43989 l -0.12569,1.69673 q -0.0628,0.94262 -0.53415,1.53962 -0.43989,0.56557 -1.85383,0.56557 l -1.6653,0 z"
         style="font-style:normal;font-variant:normal;font-weight:normal;font-stretch:normal;font-family:'Poetsen One';-inkscape-font-specification:'Poetsen One'"
         id="path4213"
         inkscape:connector-curvature="0" />
      <path
         d="m 186.34837,988.45102 q -0.18853,0 -0.43989,0 -0.21995,-0.0314 -0.43989,-0.0628 -0.21995,-0.0628 -0.37705,-0.12568 -0.15711,-0.0943 -0.15711,-0.21995 0,-0.40847 0.0314,-0.7541 0.0314,-0.34563 0.0314,-0.72268 0,-0.69126 -0.18852,-1.13115 -0.18853,-0.43989 -0.7541,-0.43989 -0.87978,0 -1.47678,1.16257 -0.56558,1.13115 -0.72268,3.42487 -0.0628,1.00547 -0.18852,2.29372 -0.0943,1.25684 -0.18853,2.45083 -0.0943,1.16257 -0.1571,2.07377 -0.0628,0.91121 -0.0628,1.19399 0,0.31421 -0.21994,0.47132 -0.21995,0.1571 -0.47131,0.1571 l -1.13115,0 q -0.97405,0 -1.60247,-0.18852 -0.59699,-0.21995 -0.97404,-0.597 -0.34563,-0.37705 -0.50274,-0.9112 -0.12568,-0.56558 -0.12568,-1.28826 0,-0.47131 0.0314,-1.31967 0.0628,-0.87979 0.18853,-2.38799 0.12568,-1.53962 0.28278,-3.86476 0.18853,-2.35656 0.4399,-5.81285 0.0628,-0.91121 0.65983,-0.91121 l 1.22542,0 q 0.87978,0 1.47678,0.18853 0.59699,0.18852 0.97404,0.53415 0.37705,0.31421 0.53416,0.7541 0.18852,0.43989 0.25136,0.91121 0.37705,-0.72268 0.87979,-1.22542 0.53415,-0.53415 1.09972,-0.84836 0.56558,-0.34563 1.16258,-0.47131 0.59699,-0.15711 1.09972,-0.15711 0.597,0 1.194,0.21995 0.62841,0.21995 1.13115,0.65984 0.50273,0.43989 0.78552,1.13115 0.31421,0.69126 0.31421,1.63388 0,0.84836 -0.25137,1.60246 -0.25137,0.7541 -0.72268,1.3511 -0.47131,0.56557 -1.16257,0.9112 -0.65984,0.31421 -1.47678,0.31421 z"
         style="font-style:normal;font-variant:normal;font-weight:normal;font-stretch:normal;font-family:'Poetsen One';-inkscape-font-specification:'Poetsen One'"
         id="path4215"
         inkscape:connector-curvature="0" />
      <path
         d="m 197.23619,983.61221 q 0,0.65984 -0.12568,1.85383 -0.0943,1.19399 -0.21995,2.48225 -0.0943,1.28825 -0.21995,2.4194 -0.0943,1.13115 -0.0943,1.63389 0,1.09972 0.53416,1.72814 0.56557,0.597 1.53962,0.597 0.84836,0 1.41393,-0.65984 0.597,-0.69126 0.94263,-1.75957 0.37705,-1.09973 0.597,-2.48224 0.21994,-1.38252 0.3142,-2.79646 0.12569,-1.41393 0.18853,-2.73361 0.0943,-1.3511 0.18852,-2.32514 0.0314,-0.25137 0.18853,-0.43989 0.1571,-0.18853 0.50273,-0.18853 l 1.13115,0 q 0.97405,0 1.57104,0.21995 0.62842,0.18852 0.97405,0.56557 0.37705,0.37705 0.50273,0.94263 0.15711,0.53415 0.15711,1.25683 0,0.47131 -0.0628,1.3511 -0.0314,0.84836 -0.15711,2.38798 -0.12568,1.5082 -0.31421,3.86476 -0.1571,2.32514 -0.40847,5.78144 -0.0628,0.65983 -0.1571,0.78552 -0.0628,0.12568 -0.50274,0.12568 l -1.22541,0 q -0.94262,0 -1.57104,-0.21995 -0.597,-0.21994 -0.97405,-0.56557 -0.37705,-0.34563 -0.53415,-0.81694 -0.1571,-0.47131 -0.18852,-0.97405 -0.47132,0.81694 -1.06831,1.38252 -0.56558,0.56557 -1.19399,0.9112 -0.62842,0.31421 -1.28826,0.43989 -0.65984,0.15711 -1.28825,0.15711 -1.19399,0 -2.13662,-0.37705 -0.94262,-0.40847 -1.60246,-1.06831 -0.62842,-0.65984 -0.97405,-1.57104 -0.34563,-0.91121 -0.34563,-1.94809 0,-0.40847 0.0314,-1.31968 0.0628,-0.94262 0.12569,-2.10519 0.0943,-1.16257 0.18852,-2.45083 0.0943,-1.31967 0.15711,-2.48224 0.0943,-1.16258 0.1571,-2.04236 0.0943,-0.87978 0.12568,-1.25683 0.0628,-0.56558 0.25137,-0.7541 0.18853,-0.21995 0.62842,-0.21995 l 1.00546,0 q 0.97405,0 1.60247,0.18853 0.62841,0.18852 0.97404,0.53415 0.37705,0.34563 0.50274,0.84836 0.1571,0.47132 0.1571,1.09973 z"
         style="font-style:normal;font-variant:normal;font-weight:normal;font-stretch:normal;font-family:'Poetsen One';-inkscape-font-specification:'Poetsen One'"
         id="path4217"
         inkscape:connector-curvature="0" />
      <path
         d="m 218.02451,994.35814 q 0.9112,0 1.57104,-0.25137 0.69126,-0.25137 1.19399,-0.56557 0.50273,-0.31421 0.84836,-0.56558 0.34563,-0.25137 0.62842,-0.25137 0.72268,0 0.72268,0.94263 0,0.21995 -0.0943,0.62842 -0.0943,0.37705 -0.25137,0.81694 -0.15711,0.40847 -0.34563,0.78552 -0.1571,0.37705 -0.31421,0.56557 -0.12568,0.15711 -0.47131,0.47132 -0.34563,0.28278 -0.87978,0.59699 -0.50274,0.28279 -1.22542,0.56558 -0.72268,0.28278 -1.60246,0.37705 l -0.12568,1.00546 q 1.41393,0 2.19946,0.4399 0.81694,0.47127 0.81694,1.60247 0,1.3197 -1.06831,2.1366 -1.06831,0.8484 -2.76503,0.8484 -0.34563,0 -0.84837,-0.063 -0.47131,-0.031 -0.9112,-0.2199 -0.40847,-0.1571 -0.72268,-0.4713 -0.28279,-0.2828 -0.28279,-0.7856 0,-0.4084 0.15711,-0.8797 0.18852,-0.4399 0.43989,-0.4399 0.12568,0 0.25136,0.1257 0.15711,0.1256 0.34563,0.2827 0.21995,0.1886 0.50274,0.3143 0.31421,0.1256 0.72268,0.1256 0.43989,0 0.7541,-0.1571 0.3142,-0.1571 0.3142,-0.5027 0,-0.3771 -0.37705,-0.597 -0.34562,-0.2199 -0.81694,-0.377 -0.43989,-0.1257 -0.81694,-0.2514 -0.34563,-0.094 -0.34563,-0.1885 0,-0.3142 0.12569,-0.87982 0.12568,-0.56558 0.28278,-1.09973 -1.09973,-0.15711 -2.16803,-0.62842 -1.03689,-0.47131 -1.88525,-1.38252 -0.81695,-0.9112 -1.3511,-2.32514 -0.50273,-1.41394 -0.50273,-3.42487 0,-0.81694 0.0943,-1.85383 0.12568,-1.06831 0.47131,-2.16804 0.34563,-1.13115 0.91121,-2.19945 0.59699,-1.09973 1.57104,-1.9481 0.97404,-0.84836 2.32514,-1.35109 1.38252,-0.53416 3.26777,-0.53416 1.53962,0 2.63935,0.37705 1.13115,0.34563 1.85382,0.97405 0.72268,0.597 1.06831,1.41394 0.37705,0.81694 0.37705,1.75956 0,1.69673 -1.06831,2.51367 -1.0683,0.78552 -3.0164,0.78552 -0.47131,0 -0.65983,-0.0628 -0.15711,-0.0943 -0.15711,-0.37705 0,-0.7541 -0.0314,-1.3511 -0.0314,-0.59699 -0.18852,-1.00546 -0.12569,-0.40847 -0.40847,-0.62842 -0.28279,-0.21995 -0.81695,-0.21995 -0.97404,0 -1.57104,0.62842 -0.56557,0.62842 -0.87978,1.53962 -0.28279,0.87979 -0.37705,1.82241 -0.0628,0.94263 -0.0628,1.57104 0,2.23088 0.69126,3.11066 0.72268,0.87979 2.2623,0.87979 z"
         style="font-style:normal;font-variant:normal;font-weight:normal;font-stretch:normal;font-family:'Poetsen One';-inkscape-font-specification:'Poetsen One'"
         id="path4219"
         inkscape:connector-curvature="0" />
      <path
         d="m 225.14967,994.35814 q 0,-2.82788 2.54509,-4.43034 2.54508,-1.60246 7.50957,-1.72815 0.0314,-0.34562 0.0314,-0.56557 0.0314,-0.25137 0.0314,-0.597 0,-1.00546 -0.37705,-1.60246 -0.37705,-0.59699 -1.57105,-0.59699 -0.65983,0 -1.0683,0.18852 -0.40847,0.18853 -0.65984,0.53415 -0.25137,0.31421 -0.40847,0.78553 -0.15711,0.47131 -0.28279,1.03688 -0.0628,0.28279 -0.28279,0.37705 -0.21994,0.0628 -0.69126,0.0628 -3.20492,0 -3.20492,-2.4194 0,-0.97405 0.43989,-1.85383 0.47131,-0.87978 1.3511,-1.5082 0.9112,-0.65984 2.2623,-1.03689 1.35109,-0.37705 3.14208,-0.37705 3.48771,0 5.05875,1.44536 1.57105,1.44536 1.57105,4.08471 0,0.34563 -0.0943,1.25683 -0.0628,0.87979 -0.18852,1.88525 -0.0943,0.97405 -0.18853,1.85383 -0.0628,0.87979 -0.0628,1.22542 0,0.78552 0.28279,1.13115 0.28279,0.3142 0.62842,0.43989 0.37705,0.12568 0.65983,0.18852 0.28279,0.0628 0.28279,0.31421 0,0.69126 -0.18852,1.41394 -0.18853,0.72268 -0.62842,1.31967 -0.40847,0.597 -1.16257,0.97405 -0.72268,0.37705 -1.79099,0.37705 -1.5082,0 -2.2623,-0.72268 -0.7541,-0.72268 -1.00547,-2.01093 -0.7541,1.09973 -1.97951,1.91667 -1.19399,0.81694 -3.14208,0.81694 -0.94263,0 -1.79099,-0.21995 -0.81694,-0.21994 -1.44536,-0.72268 -0.59699,-0.50273 -0.97404,-1.28825 -0.34563,-0.81694 -0.34563,-1.94809 z m 9.77188,-3.58198 q -0.81694,0 -1.60247,0.12569 -0.78552,0.12568 -1.41393,0.40847 -0.597,0.25136 -0.97405,0.69126 -0.37705,0.43989 -0.37705,1.0683 0,0.72268 0.43989,1.00547 0.47132,0.28279 1.00547,0.28279 0.50273,0 1.00547,-0.21995 0.50273,-0.21994 0.87978,-0.65984 0.40847,-0.47131 0.69126,-1.13115 0.28279,-0.65983 0.34563,-1.57104 z m 2.32514,-15.17626 q 0.65984,0 1.16257,-0.28279 0.50273,-0.31421 0.87978,-0.65983 0.40847,-0.34563 0.72268,-0.62842 0.31421,-0.31421 0.597,-0.31421 0.1571,0 0.37705,0.21995 0.25136,0.18852 0.25136,1.00546 0,0.72268 -0.28278,1.5082 -0.25137,0.7541 -0.81694,1.38252 -0.53416,0.597 -1.38252,1.00547 -0.84836,0.37705 -2.01093,0.37705 -1.09973,0 -1.82241,-0.31421 -0.72268,-0.31421 -1.28826,-0.69126 -0.56557,-0.40847 -1.06831,-0.72268 -0.47131,-0.31421 -1.13115,-0.31421 -0.65983,0 -1.09972,0.31421 -0.4399,0.31421 -0.78553,0.72268 -0.34562,0.37705 -0.62841,0.69126 -0.25137,0.31421 -0.56558,0.31421 -0.1571,0 -0.40847,-0.21995 -0.21994,-0.21995 -0.21994,-1.03689 0,-0.69126 0.21994,-1.41393 0.21995,-0.7541 0.72268,-1.38252 0.50273,-0.62842 1.28826,-1.03689 0.81694,-0.40847 2.01093,-0.40847 1.03689,0 1.72814,0.31421 0.72268,0.28279 1.28826,0.62842 0.56557,0.34562 1.06831,0.65983 0.53415,0.28279 1.19399,0.28279 z"
         style="font-style:normal;font-variant:normal;font-weight:normal;font-stretch:normal;font-family:'Poetsen One';-inkscape-font-specification:'Poetsen One'"
         id="path4221"
         inkscape:connector-curvature="0" />
      <path
         d="m 250.80478,998.53711 q -2.16803,0 -3.61339,-0.597 -1.41394,-0.62841 -2.2623,-1.69672 -0.84836,-1.06831 -1.19399,-2.48225 -0.34563,-1.44536 -0.34563,-3.07924 0,-1.88525 0.43989,-3.67624 0.47131,-1.82241 1.57104,-3.23634 1.09973,-1.41394 2.89072,-2.2623 1.82241,-0.87979 4.5246,-0.87979 3.95902,0 5.65575,1.9481 1.72814,1.91667 1.72814,5.40438 0,0.97404 -0.1571,2.16804 -0.12568,1.16257 -0.53415,2.32514 -0.37705,1.16257 -1.06831,2.2623 -0.65984,1.09973 -1.69673,1.94809 -1.03689,0.84836 -2.51366,1.3511 -1.44536,0.50273 -3.42488,0.50273 z m 1.47678,-13.73091 q -1.19399,0 -1.91667,0.62842 -0.69126,0.597 -1.06831,1.47678 -0.34562,0.84836 -0.47131,1.82241 -0.0943,0.94262 -0.0943,1.60246 0,2.07378 0.65984,3.04782 0.65983,0.97405 1.88525,0.97405 1.09973,0 1.79098,-0.69126 0.72268,-0.69126 1.09973,-1.6653 0.40847,-0.97405 0.53416,-2.04236 0.1571,-1.06831 0.1571,-1.79099 0,-1.57104 -0.59699,-2.45082 -0.56558,-0.91121 -1.97952,-0.91121 z"
         style="font-style:normal;font-variant:normal;font-weight:normal;font-stretch:normal;font-family:'Poetsen One';-inkscape-font-specification:'Poetsen One'"
         id="path4223"
         inkscape:connector-curvature="0" />
    </g>
  </g>
</svg>
